<?xml version="1.0" standalone="no"?><!-- Generator: Adobe Fireworks CS5, Export SVG Extension by Aaron Beall (http://fireworks.abeall.com) . Version: 0.6.1  --><!DOCTYPE svg PUBLIC "-//W3C//DTD SVG 1.1//EN" "http://www.w3.org/Graphics/SVG/1.1/DTD/svg11.dtd"><svg id="Untitled-Page%201" viewBox="0 0 774 250" style="background-color:#ffffff00" version="1.1"	xmlns="http://www.w3.org/2000/svg" xmlns:xlink="http://www.w3.org/1999/xlink" xml:space="preserve"	x="0px" y="0px" width="774px" height="250px">	<g id="Layer%201">		<g>			<path d="M 204.6685 161.3638 C 204.4834 160.3208 204.332 159.2231 204.1865 158.0376 L 204.2393 158.0376 L 245.0469 116.813 L 276.5708 84.8755 C 276.5708 84.8755 288.4194 72.2417 287.4482 55.313 C 282.5229 24.6343 278.5151 0.3394 278.5151 0.3394 L 199.3438 33.0688 L 198.9805 33.2495 L 200.4565 39.1577 C 200.4565 39.1577 220.6104 31.3237 227.3252 38.8677 C 228.1724 39.7915 228.9668 40.4146 230.1484 43.8589 C 232.0205 49.9946 234.7939 62.522 239.8008 90.0981 C 240.8125 96.147 238.4805 100.1021 237.2749 101.772 C 237.0991 102.0024 236.958 102.1284 236.958 102.1284 L 201.3711 138.5688 C 199.9761 129.3345 200.3877 132.1333 201.3486 138.5942 L 201.3037 138.644 C 193.3091 85.9888 179.418 0.5601 179.418 0.5601 L 99.8052 33.4253 L 101.29 39.4233 C 101.29 39.4233 121.4487 31.5376 128.1699 39.0679 C 129.0195 40.0571 129.8257 40.6694 131.0063 44.1353 C 132.8486 50.1812 135.6328 62.7124 140.666 90.2739 C 141.9199 98.4019 137.4287 102.8345 137.4287 102.8345 L 102.2197 138.8296 C 94.2466 86.1733 80.4053 1.1489 80.4053 1.1489 L 0.8433 34.0239 L 2.3086 39.9878 C 2.3086 39.9878 22.4419 32.1353 29.1807 39.7251 C 32.3652 43.2573 34.4526 41.7407 60.7554 201.0264 C 60.7554 201.0264 64.771 222.6719 42.4741 241.8604 L 48.5464 249.2949 C 48.5464 249.2949 112.0864 207.2109 105.6826 162.0356 C 105.5469 160.8276 105.3428 159.6128 105.1357 158.3442 L 145.7471 117.4028 C 149.4531 138.5542 154.0313 165.5894 159.7417 200.4277 C 159.7417 200.4277 163.7285 222.0225 141.436 241.2461 L 147.5791 248.6436 C 147.5791 248.6436 211.0723 206.5977 204.6685 161.3638 L 204.6685 161.3638 Z" fill="#ed2909"/>			<path d="M 488.4365 108.3276 C 488.0732 110.0044 487.666 111.6938 487.2314 113.3501 C 485.8613 118.979 484.6152 124.2017 484.584 124.2017 L 507.0693 124.2017 C 507.0693 124.2017 508.4443 118.5171 510.0176 112.4712 C 511.7715 105.563 513.7197 98.1245 513.7197 98.0776 C 516.6074 86.104 508.9766 66.187 490.3467 69.5093 C 483.5654 70.7583 477.457 74.0649 471.5156 77.6118 C 462.8223 82.7524 454.7793 89.4048 447.0928 96.1919 L 433.4219 143.3335 L 402.3145 143.3667 C 408.9229 117.9565 413.4834 115.2056 401.9268 101.1694 L 384.6035 109.5161 C 386.9463 115.1011 386.0542 118.5952 385.167 123.0425 C 383.0928 129.9712 379.3423 143.5298 379.3423 143.5298 L 367.1582 143.5298 L 363.4961 155.1099 L 376.0596 155.063 L 356.7734 234.0449 C 357.1641 237.7383 365.3418 249.2031 375.2461 249.2949 L 403.6348 231.3652 L 400.1836 225.3477 C 383.4297 236.4189 381.5073 228.6719 381.6187 225.0449 C 387.5947 201.8604 398.8154 155.1675 398.8154 155.1675 L 426.1201 155.1675 C 426.1201 155.1675 430.9395 154.6021 429.7617 158.7593 L 408.4473 246.9902 L 431.8262 246.7832 L 454.1475 155.1909 L 469.6748 155.1675 C 473.9961 155.7358 476.9814 157.2905 475.623 162.6147 C 475.623 162.6147 458.3574 233.6025 458.2188 234.0449 C 458.5566 237.7383 466.7617 249.2031 476.6436 249.2949 L 505.0313 231.3652 L 501.6055 225.3691 C 494.1738 230.2324 489.6895 231.4121 487.0195 230.9746 L 486.7744 230.875 L 486.4365 230.7988 L 486.0977 230.6934 L 485.9561 230.6934 C 483.4512 229.6328 482.9736 226.875 483.043 225.0449 C 489.0371 201.8604 503.0566 143.3667 503.0566 143.3667 L 456.8271 143.3667 L 468.2852 99.1392 C 470.9043 92.4048 479.2129 86.4966 485.5684 87.519 C 492.4844 88.6265 490.8467 97.7085 488.748 106.979 C 488.6514 107.4448 488.5566 107.9575 488.4365 108.3276 L 488.4365 108.3276 Z" fill="#ed2909"/>			<path d="M 275.9658 227.0566 L 276.0215 227.0566 L 275.9658 227.0566 Z" fill="#ed2909"/>			<path d="M 40.6421 19.7681 L 40.6421 19.7681 Z" fill="#ed2909"/>			<path d="M 361.8809 165.2212 L 361.8809 165.2212 C 361.3506 164.0776 360.8159 162.9028 360.2393 161.8491 C 354.9189 150.8247 348.2451 145.7729 341.4082 143.8062 C 341.1172 143.6714 340.7412 143.6245 340.4277 143.5063 C 338.8828 143.1392 337.0342 142.9263 335.0986 142.9263 C 321.8652 143.022 301.5161 151.9233 296.3613 165.4028 C 293.6602 172.4106 289.8789 184.8389 290.8447 191.8721 C 290.9678 192.6875 291.1313 193.498 291.4043 194.1738 C 292.292 196.3496 293.7559 198.0264 295.666 199.4727 C 300.5342 203.2832 308.5 204.9414 315.6743 207.2559 L 315.9941 207.3965 C 316.6084 207.584 317.2886 207.8145 317.9102 208.0137 C 320.8218 209.2354 323.1025 210.835 323.5967 213.5781 C 324.3672 218.0137 322.0562 226.1348 318.9961 231.1553 C 311.748 243.3652 302.3809 235.9775 293.5459 216.5781 L 293.3447 216.6465 L 293.3203 216.6465 C 292.6992 216.998 276.5708 226.6738 276.0137 227.0479 C 276.5151 228.252 277.0977 229.3613 277.6758 230.418 C 282.9478 241.4668 289.5996 246.5146 296.5054 248.5039 C 296.8418 248.6055 297.1875 248.7109 297.5088 248.7871 C 299.0566 249.2031 300.8828 249.3887 302.8164 249.3379 C 315.9941 249.2695 336.4023 240.3418 341.5522 226.875 C 344.2344 219.8428 347.9819 207.4639 347.0498 200.4277 C 346.9492 199.5449 346.7358 198.7871 346.4653 198.0938 C 345.5977 195.959 344.1367 194.252 342.2744 192.8594 C 337.3633 188.9854 329.4004 187.3262 322.2139 184.9902 L 321.9102 184.9277 C 321.2573 184.6875 320.6597 184.4648 320.0527 184.25 C 317.0845 183.0273 314.7871 181.4414 314.3081 178.7139 C 313.5361 174.2622 315.8623 166.1958 318.8955 161.1675 C 326.1973 148.9282 335.5806 156.3589 344.4233 175.6919 L 344.5239 175.6323 L 344.5928 175.6323 C 345.1953 175.3179 361.3291 165.5894 361.8809 165.2212 L 361.8809 165.2212 Z" fill="#ed2909"/>			<path d="M 700.2217 168.771 L 687.4063 215.8848 C 686.6982 218.6982 685.2725 219.8574 684.29 220.9688 C 668.8232 233.6025 650.6953 238.6514 657.1953 211.7188 C 657.1953 211.7188 668.2158 167.896 670.1543 164.8931 C 679.9443 151.939 701.6182 150.2183 700.2217 168.771 L 700.2217 168.771 ZM 772.7979 71.0376 C 756.2344 70.6431 737.9814 72.1851 725.7725 85.2964 C 718.7832 98.6812 705.082 148.6021 705.082 148.6021 C 700.8926 142.5679 667.3838 134.8325 648.1406 160.9028 L 647.9971 161.1538 C 645.4893 166.2866 631.3008 223.2246 631.1475 223.3066 C 626.5205 226.6855 613.7871 231.4824 611.9258 231.2939 C 609.0781 230.0117 607.5479 227.7852 608.0283 224.5732 C 620.5713 181.1406 629.2314 136.6978 643.3477 93.8999 C 648.6055 83.0337 660.2568 78.2417 671.4004 76.9175 L 670.9404 71.0376 C 654.4492 70.6431 636.1963 72.1851 623.9629 85.2964 C 614.8164 100.5669 584.334 228.0195 584.334 228.0195 C 582.8232 238.5811 593.8887 250.125 601.3809 249.2949 C 612.3125 244.5186 622.084 237.8984 632.2783 231.752 C 635.6475 236.3604 641.0605 242.4141 645.582 245.6475 C 658.7402 255.2422 684.623 238.165 684.7656 238.4053 C 688.4326 244.166 694.1045 250.4053 703.8867 248.5547 C 711.3672 246.0859 740.5293 226.7715 740.5293 226.7715 L 736.6328 220.3145 C 736.6328 220.3145 721.1982 230.2773 712.3408 231.252 C 712.3408 231.252 707.084 230.8652 708.6768 224.6738 L 745.1074 93.8999 C 750.4141 83.0337 762.0801 78.2417 773.1563 76.9175 L 772.7979 71.0376 Z" fill="#ed2909"/>			<path d="M 567.4922 176.4321 C 562.4434 191.2188 544.334 189.3066 541.4941 188.8223 L 541.4941 188.8438 C 541.0137 188.6104 541.1934 187.7324 541.1934 187.7324 L 545.7529 170.0142 C 548.5518 159.9146 560.7813 153.9897 565.8613 155.3638 C 574.2354 158.7349 567.4922 176.4321 567.4922 176.4321 L 567.4922 176.4321 ZM 586.7598 146.7368 C 579.1309 139.1548 562.5547 143.4819 552.0156 146.1138 C 540.8623 149.7153 528.5068 153.6147 523.2129 166.5552 C 518.9736 181.502 511.8477 209.1934 507.9063 227.418 C 507.7363 232.3496 523.5293 248.3574 535.1816 249.3027 C 538.6504 250.6221 574.7891 226.8672 574.7891 226.8672 L 570.9326 220.3145 C 570.9326 220.3145 556.2725 229.7891 547.3457 230.9746 C 546.9346 231.0098 546.4795 230.9307 546.4795 230.9307 C 541.2822 230.1523 534.8408 226.1768 533.043 221.5605 C 532.3867 220.0781 537.5137 201.5332 537.5137 201.5332 C 537.5137 201.5332 572.2383 203.168 582.6133 189.8145 C 590.1064 177.4453 595.3643 156.5034 586.7598 146.7368 L 586.7598 146.7368 Z" fill="#ed2909"/>			<path d="M 263.0088 176.4321 C 257.9336 191.2188 239.8726 189.3066 237.0303 188.8223 L 237.0303 188.8438 C 236.521 188.6104 236.7358 187.7324 236.7358 187.7324 L 241.3096 170.0142 C 244.1328 159.9146 256.2939 153.9897 261.3945 155.3638 C 269.7959 158.7349 263.0088 176.4321 263.0088 176.4321 L 263.0088 176.4321 ZM 282.3008 146.7368 C 274.6426 139.1548 258.0684 143.4819 247.5034 146.1138 C 236.3843 149.7153 224.0024 153.6147 218.7246 166.5552 C 214.4648 181.502 207.3833 209.1934 203.4834 227.418 C 203.272 232.3496 219.0864 248.3574 230.7178 249.3027 C 234.207 250.6221 270.3213 226.8672 270.3213 226.8672 L 266.4756 220.3145 C 266.4756 220.3145 251.7607 229.7891 242.8574 230.9746 C 242.4912 231.0098 242.0151 230.9307 242.0151 230.9307 C 236.8154 230.1523 230.4277 226.1768 228.624 221.5605 C 227.896 220.0781 233.0225 201.5332 233.0225 201.5332 C 233.0225 201.5332 267.8193 203.168 278.1519 189.8145 C 285.6416 177.4453 290.9004 156.5034 282.3008 146.7368 L 282.3008 146.7368 Z" fill="#ed2909"/>		</g>	</g></svg>